{
    "accessors":[
        {
            "bufferView":0,
            "byteOffset":0,
            "componentType":5123,
            "count":295560,
            "type":"SCALAR",
            "max":[
                49265
            ],
            "min":[
                0
            ]
        },
        {
            "bufferView":1,
            "byteOffset":0,
            "componentType":5126,
            "count":49266,
            "type":"VEC3",
            "max":[
                0.27459999918937683,
                0.8812999725341797,
                0.2874999940395355
            ],
            "min":[
                -0.22779999673366547,
                -0.9721999764442444,
                -0.21490000188350677
            ]
        }
    ],
    "asset":{
        "generator":"Aspose.3D 21.1",
        "version":"2.0"
    },
    "buffers":[
        {
            "uri":"buffer.bin",
            "byteLength":4137848
        }
    ],
    "bufferViews":[
        {
            "buffer":0,
            "byteOffset":0,
            "byteLength":591120,
            "target":34963
        },
        {
            "buffer":0,
            "byteOffset":591124,
            "byteLength":3546720,
            "byteStride":12,
            "target":34962
        }
    ],
    "meshes":[
        {
            "primitives":[
                {
                    "attributes":{
                        "POSITION":1
                    },
                    "indices":0,
                    "mode":4
                }
            ]
        }
    ],
    "nodes":[
        {
            "mesh":0,
            "name":""
        }
    ],
    "scene":0,
    "scenes":[
        {
            "nodes":[
                0
            ]
        }
    ]
}
